<svg xmlns="http://www.w3.org/2000/svg" viewBox="0 0 501.31 616.4"><defs><style>.cls-1{fill:#fff;}.cls-2,.cls-3{fill:none;stroke:#fff;stroke-miterlimit:10;}.cls-2{stroke-width:0.25px;}.cls-3{stroke-width:5px;}</style></defs><g id="Layer_2" data-name="Layer 2"><g id="Layer_1-2" data-name="Layer 1"><path class="cls-1" d="M301.12,42.56a58,58,0,1,1-58.05,58A58,58,0,0,1,301.12,42.56Z"/><path class="cls-2" d="M359.16,100.6a58,58,0,1,1-58-58A58,58,0,0,1,359.16,100.6Z"/><path class="cls-1" d="M107.66,149.47a58,58,0,1,1-58,58A58,58,0,0,1,107.66,149.47Z"/><path class="cls-2" d="M165.7,207.51a58,58,0,1,1-58-58A58.05,58.05,0,0,1,165.7,207.51Z"/><path class="cls-1" d="M336.43,351.11a58,58,0,1,1-58,58.05A58.05,58.05,0,0,1,336.43,351.11Z"/><path class="cls-2" d="M394.47,409.16a58,58,0,1,1-58-58.05A58,58,0,0,1,394.47,409.16Z"/><path class="cls-3" d="M498.81,245.77a38.27,38.27,0,1,1-38.27-38.27A38.27,38.27,0,0,1,498.81,245.77Z"/><path class="cls-3" d="M171.94,398.23A38.27,38.27,0,1,1,133.68,360,38.26,38.26,0,0,1,171.94,398.23Z"/><path class="cls-1" d="M58.17,500.2a58,58,0,1,1-58,58.05A58.05,58.05,0,0,1,58.17,500.2Z"/><path class="cls-2" d="M116.21,558.25a58,58,0,1,1-58-58.05A58,58,0,0,1,116.21,558.25Z"/><rect class="cls-1" x="164.28" y="151.15" width="84.64" height="12.16" rx="1.99" transform="translate(-48.89 111.09) rotate(-27.03)"/><rect class="cls-1" x="70.93" y="466.03" width="60.79" height="12.16" rx="1.99" transform="translate(-372.68 380.07) rotate(-66.9)"/><path class="cls-3" d="M318.16,593.55A29.12,29.12,0,1,1,356.6,608.3,29.12,29.12,0,0,1,318.16,593.55Z"/><path class="cls-3" d="M125.45,43.47A29.12,29.12,0,1,1,163.9,58.22,29.12,29.12,0,0,1,125.45,43.47Z"/><rect class="cls-1" x="311.37" y="503.02" width="60.79" height="12.16" rx="1.99" transform="translate(845.4 159.33) rotate(89.09)"/><rect class="cls-1" x="342.99" y="169.91" width="94.56" height="12.16" rx="1.99" transform="translate(559.84 569.1) rotate(-137.61)"/><rect class="cls-1" x="96.04" y="100.64" width="75.27" height="12.16" rx="1.99" transform="translate(-1.76 211.19) rotate(-76.25)"/><rect class="cls-1" x="140.59" y="299.58" width="166.1" height="12.16" rx="2" transform="translate(181.77 682.08) rotate(-137.46)"/><rect class="cls-1" x="111.07" y="480.51" width="176.38" height="12.16" rx="2" transform="translate(-193.56 137.06) rotate(-26.07)"/></g></g></svg>